<?xml version="1.0" standalone="no"?>
<!DOCTYPE svg PUBLIC "-//W3C//DTD SVG 20010904//EN"
 "http://www.w3.org/TR/2001/REC-SVG-20010904/DTD/svg10.dtd">
<svg version="1.0" xmlns="http://www.w3.org/2000/svg"
 width="225.000000pt" height="225.000000pt" viewBox="0 0 225.000000 225.000000"
 preserveAspectRatio="xMidYMid meet">

<g transform="translate(0.000000,225.000000) scale(0.100000,-0.100000)"
fill="#000000" stroke="none">
<path d="M890 1224 c0 -2 11 -22 25 -43 28 -41 66 -65 133 -81 l42 -11 0 -228
0 -228 -37 -24 c-40 -26 -61 -69 -27 -54 50 22 89 17 128 -14 46 -37 96 -41
126 -11 25 25 16 44 -17 35 -17 -4 -39 4 -78 27 l-54 33 -3 118 -3 117 33 0
c29 0 32 -3 32 -30 0 -23 4 -30 20 -30 19 0 20 7 20 90 0 83 -1 90 -20 90 -16
0 -20 -7 -20 -30 0 -26 -3 -30 -29 -30 l-30 0 -3 86 -3 86 35 15 c56 24 104
19 154 -17 60 -43 81 -38 80 20 -1 36 -7 48 -33 72 -37 33 -83 37 -169 12 -73
-22 -190 -15 -254 14 -27 11 -48 19 -48 16z"/>
<path d="M853 872 c-36 -123 -52 -166 -65 -170 -12 -3 -18 -14 -18 -33 0 -28
1 -29 55 -29 54 0 55 0 55 30 0 20 -5 30 -15 30 -9 0 -15 9 -15 25 0 24 3 25
59 25 55 0 59 -2 63 -25 4 -19 1 -25 -13 -25 -14 0 -19 -7 -19 -30 0 -30 1
-30 55 -30 54 0 55 0 55 30 0 19 -5 30 -14 30 -15 0 -27 35 -61 170 -33 133
-46 167 -59 167 -10 0 -30 -53 -63 -165z m82 1 c8 -32 14 -61 15 -65 0 -5 -17
-8 -39 -8 l-39 0 21 70 c11 39 22 68 24 66 3 -2 11 -30 18 -63z"/>
<path d="M1306 958 c-13 -46 -36 -122 -51 -170 -17 -58 -31 -88 -41 -88 -9 0
-14 -11 -14 -30 0 -30 1 -30 55 -30 54 0 55 0 55 30 0 23 -5 30 -19 30 -14 0
-17 6 -13 25 4 25 7 26 61 23 49 -3 56 -6 59 -25 3 -17 -2 -23 -15 -23 -14 0
-18 -7 -17 -27 1 -27 3 -28 57 -31 l57 -3 0 29 c0 20 -6 31 -18 34 -14 4 -26
34 -50 134 -48 193 -52 204 -67 204 -9 0 -23 -31 -39 -82z m67 -126 c6 -32 6
-32 -33 -32 -27 0 -38 4 -35 13 2 6 11 39 21 72 l16 60 13 -40 c6 -23 15 -55
18 -73z"/>
</g>
</svg>
